<svg width="26" height="20" viewBox="0 0 26 20" fill="none" xmlns="http://www.w3.org/2000/svg">
<path d="M12.7504 0.832825C12.4322 0.832825 12.1179 0.890108 11.8194 1.00058L0.801287 5.14547C0.428124 5.28868 0.180658 5.65694 0.180658 6.0702C0.180658 6.48346 0.428124 6.85171 0.801287 6.99492L3.07562 7.85009C2.43142 8.90575 2.06611 10.1537 2.06611 11.4671V12.6169C2.06611 13.779 1.64189 14.9778 1.19016 15.923C0.93484 16.4549 0.644166 16.9787 0.306355 17.4615C0.180658 17.6374 0.145306 17.8666 0.216011 18.0752C0.286715 18.2839 0.451692 18.4394 0.65595 18.4926L3.16989 19.1473C3.33487 19.1923 3.51163 19.1595 3.65697 19.0654C3.8023 18.9713 3.90443 18.8158 3.93586 18.6399C4.27367 16.8887 4.10476 15.3174 3.85337 14.1922C3.72767 13.6112 3.55876 13.0179 3.32308 12.4737V11.4671C3.32308 10.2315 3.72374 9.06532 4.419 8.13241C4.92572 7.4982 5.5817 6.98674 6.35159 6.67168L12.5186 4.1471C12.8407 4.01617 13.206 4.17983 13.3317 4.51535C13.4574 4.85087 13.3003 5.2314 12.9782 5.36234L6.81117 7.88691C6.3241 8.08741 5.89594 8.39428 5.54635 8.77072L11.8155 11.1275C12.114 11.238 12.4283 11.2953 12.7464 11.2953C13.0646 11.2953 13.3788 11.238 13.6774 11.1275L24.6994 6.99492C25.0726 6.85581 25.3201 6.48346 25.3201 6.0702C25.3201 5.65694 25.0726 5.28868 24.6994 5.14547L13.6813 1.00058C13.3828 0.890108 13.0685 0.832825 12.7504 0.832825ZM5.20854 16.2176C5.20854 17.662 8.58664 19.1636 12.7504 19.1636C16.9141 19.1636 20.2922 17.662 20.2922 16.2176L19.6912 10.2683L14.1055 12.3714C13.6695 12.5351 13.2099 12.6169 12.7504 12.6169C12.2908 12.6169 11.8273 12.5351 11.3952 12.3714L5.80953 10.2683L5.20854 16.2176Z" fill="#D4D4D4"/>
</svg>
