<svg width="22" height="22" viewBox="0 0 22 22" fill="none" xmlns="http://www.w3.org/2000/svg">
<path d="M21.2193 10.9796C21.2193 11.7161 20.6737 12.293 20.0553 12.293H18.8914L18.9168 18.8479C18.9168 18.9584 18.9095 19.0688 18.8986 19.1793V19.8381C18.8986 20.7424 18.2475 21.4748 17.4437 21.4748H16.8617C16.8217 21.4748 16.7817 21.4748 16.7417 21.4707C16.6907 21.4748 16.6398 21.4748 16.5889 21.4748H15.4067H14.5338C13.7299 21.4748 13.0788 20.7424 13.0788 19.8381V18.8561V16.2374C13.0788 15.5132 12.5587 14.928 11.9149 14.928H9.58695C8.94313 14.928 8.42299 15.5132 8.42299 16.2374V18.8561V19.8381C8.42299 20.7424 7.7719 21.4748 6.96804 21.4748H6.09507H4.93475C4.88019 21.4748 4.82562 21.4707 4.77106 21.4666C4.72742 21.4707 4.68377 21.4748 4.64012 21.4748H4.05814C3.25428 21.4748 2.60319 20.7424 2.60319 19.8381V15.2554C2.60319 15.2186 2.60319 15.1776 2.60683 15.1408V12.293H1.43923C0.784501 12.293 0.275269 11.7202 0.275269 10.9796C0.275269 10.6113 0.38439 10.284 0.639006 9.99755L9.96523 0.852604C10.2199 0.566186 10.5108 0.525269 10.7655 0.525269C11.0201 0.525269 11.3111 0.607103 11.5293 0.811687L20.8192 9.99755C21.1102 10.284 21.2556 10.6113 21.2193 10.9796Z" fill="#FFD7EB"/>
</svg>
