<svg width="87" height="24" viewBox="0 0 87 24" fill="none" xmlns="http://www.w3.org/2000/svg">
<path d="M3.642 23.238C2.56733 21.5393 1.78733 19.754 1.302 17.882C0.834 15.9927 0.6 14.086 0.6 12.162C0.6 10.8793 0.704 9.60533 0.912 8.34C1.12 7.07467 1.44933 5.83533 1.9 4.622C2.35067 3.39133 2.93133 2.21267 3.642 1.086C3.83267 0.774 4.084 0.583333 4.396 0.513999C4.72533 0.427333 5.02867 0.444666 5.306 0.565999C5.60067 0.687333 5.81733 0.912666 5.956 1.242C6.09467 1.554 6.07733 1.95267 5.904 2.438C5.488 3.54733 5.14133 4.63933 4.864 5.714C4.604 6.77133 4.40467 7.82867 4.266 8.886C4.14467 9.94333 4.084 11.0353 4.084 12.162C4.084 13.2887 4.15333 14.3807 4.292 15.438C4.43067 16.4953 4.63867 17.5527 4.916 18.61C5.19333 19.6673 5.52267 20.7593 5.904 21.886C6.07733 22.3713 6.09467 22.77 5.956 23.082C5.81733 23.4113 5.60067 23.6367 5.306 23.758C5.02867 23.8793 4.72533 23.8967 4.396 23.81C4.084 23.7407 3.83267 23.55 3.642 23.238ZM23.3157 19.208C22.7957 19.208 22.397 19.0693 22.1197 18.792C21.8423 18.4973 21.7037 18.0813 21.7037 17.544V2.1C21.7037 1.56267 21.8423 1.15533 22.1197 0.877999C22.397 0.600665 22.7957 0.461998 23.3157 0.461998C23.8357 0.461998 24.2343 0.600665 24.5117 0.877999C24.8063 1.15533 24.9537 1.56267 24.9537 2.1V8.834H24.5897C24.971 7.91533 25.5603 7.222 26.3577 6.754C27.1723 6.26867 28.091 6.026 29.1137 6.026C30.1363 6.026 30.977 6.21667 31.6357 6.598C32.2943 6.97933 32.7883 7.56 33.1177 8.34C33.447 9.10267 33.6117 10.0733 33.6117 11.252V17.544C33.6117 18.0813 33.473 18.4973 33.1957 18.792C32.9183 19.0693 32.5197 19.208 31.9997 19.208C31.4797 19.208 31.0723 19.0693 30.7777 18.792C30.5003 18.4973 30.3617 18.0813 30.3617 17.544V11.408C30.3617 10.42 30.171 9.70067 29.7897 9.25C29.4257 8.79933 28.8537 8.574 28.0737 8.574C27.1203 8.574 26.3577 8.87733 25.7857 9.484C25.231 10.0733 24.9537 10.862 24.9537 11.85V17.544C24.9537 18.6533 24.4077 19.208 23.3157 19.208ZM43.1787 19.26C41.74 19.26 40.5007 18.9913 39.4607 18.454C38.4207 17.9167 37.6147 17.154 37.0427 16.166C36.488 15.178 36.2107 14.008 36.2107 12.656C36.2107 11.3387 36.4793 10.186 37.0167 9.198C37.5713 8.21 38.3253 7.43867 39.2787 6.884C40.2493 6.312 41.35 6.026 42.5807 6.026C43.482 6.026 44.288 6.17333 44.9987 6.468C45.7267 6.76267 46.342 7.18733 46.8447 7.742C47.3647 8.29667 47.7547 8.97267 48.0147 9.77C48.292 10.55 48.4307 11.434 48.4307 12.422C48.4307 12.734 48.318 12.9767 48.0927 13.15C47.8847 13.306 47.5813 13.384 47.1827 13.384H38.8367V11.512H46.1427L45.7267 11.902C45.7267 11.1047 45.6053 10.4373 45.3627 9.9C45.1373 9.36267 44.7993 8.95533 44.3487 8.678C43.9153 8.38333 43.3693 8.236 42.7107 8.236C41.9827 8.236 41.3587 8.40933 40.8387 8.756C40.336 9.08533 39.946 9.562 39.6687 10.186C39.4087 10.7927 39.2787 11.5207 39.2787 12.37V12.552C39.2787 13.9733 39.608 15.0393 40.2667 15.75C40.9427 16.4433 41.9307 16.79 43.2307 16.79C43.6813 16.79 44.184 16.738 44.7387 16.634C45.3107 16.5127 45.848 16.3133 46.3507 16.036C46.7147 15.828 47.0353 15.7413 47.3127 15.776C47.59 15.7933 47.8067 15.8887 47.9627 16.062C48.136 16.2353 48.24 16.452 48.2747 16.712C48.3093 16.9547 48.2573 17.206 48.1187 17.466C47.9973 17.726 47.7807 17.9513 47.4687 18.142C46.862 18.5233 46.16 18.8093 45.3627 19C44.5827 19.1733 43.8547 19.26 43.1787 19.26ZM52.6685 19.208C52.1311 19.208 51.7151 19.0693 51.4205 18.792C51.1431 18.4973 51.0045 18.0813 51.0045 17.544V7.716C51.0045 7.17867 51.1431 6.77133 51.4205 6.494C51.6978 6.21667 52.0878 6.078 52.5905 6.078C53.0931 6.078 53.4831 6.21667 53.7605 6.494C54.0378 6.77133 54.1765 7.17867 54.1765 7.716V9.354H53.9165C54.1591 8.314 54.6358 7.52533 55.3465 6.988C56.0571 6.45067 57.0018 6.13 58.1805 6.026C58.5445 5.99133 58.8305 6.08667 59.0385 6.312C59.2638 6.52 59.3938 6.84933 59.4285 7.3C59.4631 7.73333 59.3591 8.08867 59.1165 8.366C58.8911 8.626 58.5445 8.782 58.0765 8.834L57.5045 8.886C56.4471 8.99 55.6498 9.31933 55.1125 9.874C54.5751 10.4113 54.3065 11.174 54.3065 12.162V17.544C54.3065 18.0813 54.1678 18.4973 53.8905 18.792C53.6131 19.0693 53.2058 19.208 52.6685 19.208ZM66.781 19.26C65.4636 19.26 64.3196 18.9913 63.349 18.454C62.3783 17.9167 61.6243 17.154 61.087 16.166C60.5496 15.1607 60.281 13.982 60.281 12.63C60.281 11.6073 60.4283 10.6973 60.723 9.9C61.035 9.08533 61.477 8.392 62.049 7.82C62.621 7.23067 63.3056 6.78867 64.103 6.494C64.9003 6.182 65.793 6.026 66.781 6.026C68.0983 6.026 69.2423 6.29467 70.213 6.832C71.1836 7.36933 71.9376 8.132 72.475 9.12C73.0123 10.108 73.281 11.278 73.281 12.63C73.281 13.6527 73.125 14.5713 72.813 15.386C72.5183 16.2007 72.085 16.9027 71.513 17.492C70.941 18.064 70.2563 18.506 69.459 18.818C68.6616 19.1127 67.769 19.26 66.781 19.26ZM66.781 16.79C67.4223 16.79 67.9856 16.634 68.471 16.322C68.9563 16.01 69.329 15.5507 69.589 14.944C69.8663 14.32 70.005 13.5487 70.005 12.63C70.005 11.2433 69.7103 10.212 69.121 9.536C68.5316 8.84267 67.7516 8.496 66.781 8.496C66.1396 8.496 65.5763 8.652 65.091 8.964C64.6056 9.25867 64.2243 9.718 63.947 10.342C63.687 10.9487 63.557 11.7113 63.557 12.63C63.557 13.9993 63.8516 15.0393 64.441 15.75C65.0303 16.4433 65.8103 16.79 66.781 16.79ZM77.041 19.13C76.4517 19.13 75.975 18.948 75.611 18.584C75.2643 18.22 75.091 17.752 75.091 17.18C75.091 16.6253 75.2643 16.1747 75.611 15.828C75.975 15.464 76.4517 15.282 77.041 15.282C77.6477 15.282 78.1157 15.464 78.445 15.828C78.7917 16.1747 78.965 16.6253 78.965 17.18C78.965 17.752 78.7917 18.22 78.445 18.584C78.1157 18.948 77.6477 19.13 77.041 19.13ZM83.9062 23.238C83.7156 23.55 83.4556 23.7407 83.1262 23.81C82.8142 23.8967 82.5109 23.8707 82.2162 23.732C81.9216 23.6107 81.7049 23.394 81.5662 23.082C81.4449 22.77 81.4709 22.3713 81.6442 21.886C82.0776 20.7593 82.4242 19.6673 82.6842 18.61C82.9442 17.5527 83.1349 16.4953 83.2562 15.438C83.3949 14.3807 83.4642 13.2887 83.4642 12.162C83.4642 11.0353 83.3949 9.94333 83.2562 8.886C83.1176 7.82867 82.9096 6.77133 82.6322 5.714C82.3722 4.65667 82.0429 3.56467 81.6442 2.438C81.4709 1.95267 81.4536 1.554 81.5922 1.242C81.7309 0.912666 81.9476 0.687333 82.2422 0.565999C82.5369 0.444666 82.8402 0.427333 83.1522 0.513999C83.4642 0.583333 83.7156 0.774 83.9062 1.086C84.9636 2.76733 85.7349 4.55267 86.2202 6.442C86.7056 8.33133 86.9482 10.238 86.9482 12.162C86.9482 13.4447 86.8356 14.7187 86.6102 15.984C86.4022 17.2493 86.0729 18.4887 85.6222 19.702C85.1889 20.9327 84.6169 22.1113 83.9062 23.238Z" fill="white"/>
<path d="M13.6624 19.26C12.917 19.26 12.1284 19.182 11.2964 19.026C10.4644 18.87 9.71903 18.6013 9.06036 18.22C8.78303 18.0467 8.58369 17.8473 8.46236 17.622C8.35836 17.3793 8.31503 17.1453 8.33236 16.92C8.36703 16.6773 8.45369 16.4693 8.59236 16.296C8.74836 16.1227 8.93903 16.01 9.16436 15.958C9.40703 15.906 9.66703 15.9493 9.94436 16.088C10.6377 16.4173 11.2877 16.6513 11.8944 16.79C12.501 16.9113 13.099 16.972 13.6884 16.972C14.5204 16.972 15.1357 16.8333 15.5344 16.556C15.9504 16.2613 16.1584 15.88 16.1584 15.412C16.1584 15.0133 16.0197 14.71 15.7424 14.502C15.4824 14.2767 15.0837 14.112 14.5464 14.008L11.9464 13.514C10.8717 13.306 10.0484 12.916 9.47636 12.344C8.92169 11.7547 8.64436 11.0007 8.64436 10.082C8.64436 9.25 8.86969 8.53067 9.32036 7.924C9.78836 7.31733 10.4297 6.84933 11.2444 6.52C12.059 6.19067 12.995 6.026 14.0524 6.026C14.815 6.026 15.5257 6.11267 16.1844 6.286C16.8604 6.442 17.5104 6.69333 18.1344 7.04C18.3944 7.17867 18.5677 7.36067 18.6544 7.586C18.7584 7.81133 18.7844 8.04533 18.7324 8.288C18.6804 8.51333 18.5764 8.72133 18.4204 8.912C18.2644 9.08533 18.065 9.198 17.8224 9.25C17.597 9.28467 17.337 9.23267 17.0424 9.094C16.505 8.81667 15.985 8.61733 15.4824 8.496C14.997 8.37467 14.529 8.314 14.0784 8.314C13.229 8.314 12.5964 8.46133 12.1804 8.756C11.7817 9.05067 11.5824 9.44067 11.5824 9.926C11.5824 10.29 11.7037 10.5933 11.9464 10.836C12.189 11.0787 12.5617 11.2433 13.0644 11.33L15.6644 11.824C16.791 12.032 17.6404 12.4133 18.2124 12.968C18.8017 13.5227 19.0964 14.268 19.0964 15.204C19.0964 16.4693 18.6024 17.466 17.6144 18.194C16.6264 18.9047 15.309 19.26 13.6624 19.26Z" fill="#8C0048"/>
</svg>
