<svg width="210" height="58" viewBox="0 0 210 58" fill="none" xmlns="http://www.w3.org/2000/svg">
<path d="M7.45638 56.2956C4.84564 52.1689 2.95075 47.8317 1.77171 43.284C0.634772 38.6941 0.0663041 34.0622 0.0663041 29.3881C0.0663041 26.2721 0.318956 23.1771 0.824261 20.1032C1.32957 17.0292 2.12963 14.0184 3.22446 11.0708C4.31928 8.08112 5.72992 5.21773 7.45638 2.48066C7.91958 1.72271 8.53015 1.25951 9.28811 1.09108C10.0882 0.880534 10.8251 0.922642 11.4988 1.2174C12.2147 1.51216 12.741 2.05958 13.0779 2.85964C13.4148 3.6176 13.3727 4.5861 12.9516 5.76514C11.941 8.4601 11.0988 11.1129 10.425 13.7237C9.79341 16.2923 9.30916 18.8609 8.97229 21.4296C8.67753 23.9982 8.53015 26.6511 8.53015 29.3881C8.53015 32.1252 8.69859 34.778 9.03546 37.3467C9.37233 39.9153 9.87763 42.4839 10.5514 45.0526C11.2251 47.6212 12.0252 50.274 12.9516 53.0111C13.3727 54.1901 13.4148 55.1586 13.0779 55.9166C12.741 56.7167 12.2147 57.2641 11.4988 57.5588C10.8251 57.8536 10.0882 57.8957 9.28811 57.6852C8.53015 57.5167 7.91958 57.0535 7.45638 56.2956ZM55.2506 46.5053C53.9873 46.5053 53.0188 46.1684 52.3451 45.4947C51.6713 44.7788 51.3345 43.7682 51.3345 42.4629V4.94402C51.3345 3.63865 51.6713 2.6491 52.3451 1.97536C53.0188 1.30162 53.9873 0.964749 55.2506 0.964749C56.5138 0.964749 57.4823 1.30162 58.1561 1.97536C58.8719 2.6491 59.2298 3.63865 59.2298 4.94402V21.3032H58.3456C59.2719 19.0715 60.7036 17.3871 62.6406 16.2502C64.6198 15.0712 66.8515 14.4816 69.3359 14.4816C71.8203 14.4816 73.8626 14.9448 75.4627 15.8712C77.0629 16.7976 78.263 18.2083 79.063 20.1032C79.8631 21.9559 80.2631 24.314 80.2631 27.1774V42.4629C80.2631 43.7682 79.9263 44.7788 79.2525 45.4947C78.5788 46.1684 77.6103 46.5053 76.347 46.5053C75.0838 46.5053 74.0942 46.1684 73.3784 45.4947C72.7046 44.7788 72.3678 43.7682 72.3678 42.4629V27.5564C72.3678 25.1562 71.9046 23.4087 70.9782 22.3139C70.0939 21.219 68.7043 20.6716 66.8094 20.6716C64.4934 20.6716 62.6406 21.4085 61.2511 22.8823C59.9036 24.314 59.2298 26.23 59.2298 28.6302V42.4629C59.2298 45.1578 57.9034 46.5053 55.2506 46.5053ZM103.505 46.6316C100.01 46.6316 96.9989 45.9789 94.4723 44.6736C91.9458 43.3682 89.9878 41.5154 88.5982 39.1152C87.2507 36.715 86.577 33.8727 86.577 30.5882C86.577 27.388 87.2297 24.5877 88.535 22.1875C89.8825 19.7873 91.7142 17.9135 94.0302 16.566C96.3883 15.1764 99.0622 14.4816 102.052 14.4816C104.242 14.4816 106.2 14.8396 107.926 15.5554C109.695 16.2713 111.19 17.3029 112.411 18.6504C113.674 19.9979 114.621 21.6401 115.253 23.5771C115.927 25.472 116.264 27.6196 116.264 30.0197C116.264 30.7777 115.99 31.3672 115.442 31.7883C114.937 32.1673 114.2 32.3568 113.232 32.3568H92.9564V27.809H110.705L109.695 28.7565C109.695 26.8195 109.4 25.1983 108.81 23.8929C108.263 22.5876 107.442 21.598 106.347 20.9243C105.294 20.2084 103.968 19.8505 102.368 19.8505C100.599 19.8505 99.0833 20.2716 97.82 21.1138C96.5988 21.9138 95.6514 23.0718 94.9777 24.5877C94.346 26.0615 94.0302 27.8301 94.0302 29.8934V30.3356C94.0302 33.7885 94.8303 36.3782 96.4304 38.1046C98.0726 39.789 100.473 40.6311 103.631 40.6311C104.726 40.6311 105.947 40.5048 107.294 40.2522C108.684 39.9574 109.989 39.4732 111.211 38.7994C112.095 38.2941 112.874 38.0836 113.548 38.1678C114.221 38.2099 114.748 38.4415 115.127 38.8626C115.548 39.2837 115.8 39.81 115.885 40.4417C115.969 41.0312 115.843 41.6418 115.506 42.2734C115.211 42.905 114.685 43.4524 113.927 43.9156C112.453 44.842 110.747 45.5368 108.81 46C106.915 46.4211 105.147 46.6316 103.505 46.6316ZM126.559 46.5053C125.253 46.5053 124.243 46.1684 123.527 45.4947C122.853 44.7788 122.516 43.7682 122.516 42.4629V18.5872C122.516 17.2819 122.853 16.2923 123.527 15.6186C124.201 14.9448 125.148 14.608 126.369 14.608C127.59 14.608 128.538 14.9448 129.212 15.6186C129.885 16.2923 130.222 17.2819 130.222 18.5872V22.5665H129.591C130.18 20.04 131.338 18.124 133.064 16.8187C134.791 15.5133 137.086 14.7343 139.949 14.4816C140.834 14.3974 141.528 14.629 142.034 15.1764C142.581 15.6817 142.897 16.4818 142.981 17.5766C143.065 18.6293 142.813 19.4926 142.223 20.1663C141.676 20.7979 140.834 21.1769 139.697 21.3032L138.307 21.4296C135.738 21.6822 133.801 22.4823 132.496 23.8298C131.191 25.1351 130.538 26.9879 130.538 29.3881V42.4629C130.538 43.7682 130.201 44.7788 129.527 45.4947C128.854 46.1684 127.864 46.5053 126.559 46.5053ZM160.843 46.6316C157.643 46.6316 154.863 45.9789 152.505 44.6736C150.147 43.3682 148.316 41.5154 147.01 39.1152C145.705 36.6729 145.052 33.8095 145.052 30.5251C145.052 28.0406 145.41 25.8299 146.126 23.8929C146.884 21.9138 147.958 20.2295 149.347 18.8399C150.737 17.4082 152.4 16.3344 154.337 15.6186C156.274 14.8606 158.443 14.4816 160.843 14.4816C164.043 14.4816 166.822 15.1343 169.18 16.4397C171.538 17.7451 173.37 19.5978 174.676 21.998C175.981 24.3982 176.634 27.2406 176.634 30.5251C176.634 33.0095 176.255 35.2412 175.497 37.2203C174.781 39.1994 173.728 40.9048 172.339 42.3365C170.949 43.7261 169.286 44.7999 167.349 45.5579C165.412 46.2737 163.243 46.6316 160.843 46.6316ZM160.843 40.6311C162.401 40.6311 163.769 40.2522 164.948 39.4942C166.128 38.7362 167.033 37.6204 167.664 36.1466C168.338 34.6307 168.675 32.7568 168.675 30.5251C168.675 27.1564 167.959 24.6509 166.528 23.0087C165.096 21.3243 163.201 20.4821 160.843 20.4821C159.285 20.4821 157.916 20.8611 156.737 21.6191C155.558 22.3349 154.632 23.4508 153.958 24.9667C153.326 26.4405 153.011 28.2933 153.011 30.5251C153.011 33.8516 153.727 36.3782 155.158 38.1046C156.59 39.789 158.485 40.6311 160.843 40.6311ZM185.83 46.3158C184.398 46.3158 183.24 45.8737 182.356 44.9894C181.514 44.1051 181.093 42.9682 181.093 41.5786C181.093 40.2311 181.514 39.1363 182.356 38.2941C183.24 37.4098 184.398 36.9677 185.83 36.9677C187.304 36.9677 188.441 37.4098 189.241 38.2941C190.083 39.1363 190.504 40.2311 190.504 41.5786C190.504 42.9682 190.083 44.1051 189.241 44.9894C188.441 45.8737 187.304 46.3158 185.83 46.3158ZM202.508 56.2956C202.045 57.0535 201.413 57.5167 200.613 57.6852C199.855 57.8957 199.118 57.8325 198.402 57.4957C197.686 57.2009 197.16 56.6746 196.823 55.9166C196.528 55.1586 196.592 54.1901 197.013 53.0111C198.065 50.274 198.908 47.6212 199.539 45.0526C200.171 42.4839 200.634 39.9153 200.929 37.3467C201.266 34.778 201.434 32.1252 201.434 29.3881C201.434 26.6511 201.266 23.9982 200.929 21.4296C200.592 18.8609 200.087 16.2923 199.413 13.7237C198.781 11.1551 197.981 8.50221 197.013 5.76514C196.592 4.5861 196.549 3.6176 196.886 2.85964C197.223 2.05958 197.75 1.51216 198.465 1.2174C199.181 0.922642 199.918 0.880534 200.676 1.09108C201.434 1.25951 202.045 1.72271 202.508 2.48066C205.076 6.56521 206.95 10.9024 208.129 15.4923C209.308 20.0821 209.898 24.7141 209.898 29.3881C209.898 32.5042 209.624 35.5992 209.077 38.6731C208.571 41.747 207.771 44.7578 206.677 47.7054C205.624 50.6951 204.234 53.5585 202.508 56.2956Z" fill="#E06FA9"/>
<path d="M31.7993 46.6316C29.9886 46.6316 28.0727 46.4421 26.0515 46.0632C24.0303 45.6842 22.2196 45.0315 20.6195 44.1051C19.9457 43.684 19.4615 43.1998 19.1667 42.6524C18.9141 42.0628 18.8088 41.4944 18.8509 40.947C18.9351 40.3574 19.1457 39.8521 19.4825 39.431C19.8615 39.01 20.3247 38.7362 20.8721 38.6099C21.4616 38.4836 22.0933 38.5889 22.767 38.9257C24.4514 39.7258 26.0304 40.2943 27.5042 40.6311C28.978 40.9259 30.4308 41.0733 31.8625 41.0733C33.8837 41.0733 35.3786 40.7364 36.3471 40.0627C37.3577 39.3468 37.863 38.4204 37.863 37.2835C37.863 36.315 37.5261 35.5781 36.8524 35.0728C36.2207 34.5254 35.2522 34.1253 33.9469 33.8727L27.6306 32.6726C25.0198 32.1673 23.0197 31.2198 21.6301 29.8303C20.2826 28.3986 19.6089 26.5668 19.6089 24.3351C19.6089 22.3139 20.1563 20.5663 21.2511 19.0925C22.388 17.6187 23.946 16.4818 25.9252 15.6817C27.9043 14.8817 30.1781 14.4816 32.7468 14.4816C34.5995 14.4816 36.326 14.6922 37.9261 15.1133C39.5684 15.4923 41.1474 16.1028 42.6634 16.945C43.295 17.2819 43.7161 17.724 43.9266 18.2714C44.1793 18.8188 44.2424 19.3873 44.1161 19.9768C43.9898 20.5242 43.7371 21.0295 43.3582 21.4927C42.9792 21.9138 42.4949 22.1875 41.9054 22.3139C41.358 22.3981 40.7264 22.2717 40.0105 21.9349C38.7051 21.2611 37.4419 20.7769 36.2207 20.4821C35.0417 20.1874 33.9048 20.04 32.8099 20.04C30.7466 20.04 29.2096 20.3979 28.199 21.1138C27.2305 21.8296 26.7463 22.7771 26.7463 23.9561C26.7463 24.8404 27.041 25.5773 27.6306 26.1668C28.2201 26.7563 29.1254 27.1564 30.3466 27.3669L36.6629 28.567C39.3999 29.0723 41.4633 29.9987 42.8529 31.3462C44.2845 32.6937 45.0004 34.5043 45.0004 36.7782C45.0004 39.8521 43.8003 42.2734 41.4001 44.0419C38.9999 45.7684 35.7996 46.6316 31.7993 46.6316Z" fill="#8C0048"/>
</svg>
