<svg width="22" height="22" viewBox="0 0 22 22" fill="none" xmlns="http://www.w3.org/2000/svg">
<path d="M0.943028 2.0883C0.832552 1.92463 0.775269 1.72823 0.775269 1.53183C0.775269 0.975355 1.22536 0.525269 1.78183 0.525269H6.25405C6.71232 0.525269 7.14195 0.766679 7.37518 1.15948L10.178 5.82811C8.20579 6.0777 6.44227 6.99834 5.12884 8.36087L0.943028 2.0883ZM21.5529 2.0883L17.3712 8.36087C16.0578 6.99834 14.2942 6.0777 12.322 5.82811L15.1249 1.15948C15.3622 0.766679 15.7877 0.525269 16.246 0.525269H20.7182C21.2747 0.525269 21.7248 0.975355 21.7248 1.53183C21.7248 1.72823 21.6675 1.92463 21.557 2.0883H21.5529ZM4.04863 14.2734C4.04863 12.3634 4.80734 10.5317 6.15787 9.18122C7.50839 7.8307 9.34009 7.07199 11.25 7.07199C13.1599 7.07199 14.9916 7.8307 16.3422 9.18122C17.6927 10.5317 18.4514 12.3634 18.4514 14.2734C18.4514 16.1833 17.6927 18.015 16.3422 19.3655C14.9916 20.7161 13.1599 21.4748 11.25 21.4748C9.34009 21.4748 7.50839 20.7161 6.15787 19.3655C4.80734 18.015 4.04863 16.1833 4.04863 14.2734ZM11.5937 10.3904C11.4546 10.1039 11.0495 10.1039 10.9063 10.3904L9.98977 12.248C9.93249 12.3626 9.82611 12.4403 9.70335 12.4567L7.64932 12.7554C7.33426 12.8004 7.21151 13.185 7.43655 13.41L8.92184 14.8585C9.01186 14.9485 9.05278 15.0713 9.03232 15.1981L8.68043 17.2399C8.62724 17.5508 8.95457 17.7922 9.2369 17.6449L11.07 16.6793C11.1805 16.622 11.3155 16.622 11.426 16.6793L13.259 17.6449C13.5414 17.7922 13.8687 17.5549 13.8155 17.2399L13.4636 15.1981C13.4432 15.0753 13.4841 14.9485 13.5741 14.8585L15.0594 13.41C15.2885 13.1891 15.1617 12.8045 14.8466 12.7554L12.7967 12.4567C12.6739 12.4403 12.5635 12.3585 12.5103 12.248L11.5937 10.3904Z" fill="#D4D4D4"/>
</svg>
