<svg width="20" height="22" viewBox="0 0 20 22" fill="none" xmlns="http://www.w3.org/2000/svg">
<path d="M10 11C11.389 11 12.7212 10.4482 13.7034 9.46603C14.6856 8.48383 15.2374 7.15168 15.2374 5.76264C15.2374 4.3736 14.6856 3.04146 13.7034 2.05926C12.7212 1.07706 11.389 0.525269 10 0.525269C8.61096 0.525269 7.27881 1.07706 6.29662 2.05926C5.31442 3.04146 4.76262 4.3736 4.76262 5.76264C4.76262 7.15168 5.31442 8.48383 6.29662 9.46603C7.27881 10.4482 8.61096 11 10 11ZM8.13009 12.964C4.09977 12.964 0.834595 16.2292 0.834595 20.2595C0.834595 20.9306 1.37879 21.4748 2.04983 21.4748H17.9502C18.6212 21.4748 19.1654 20.9306 19.1654 20.2595C19.1654 16.2292 15.9002 12.964 11.8699 12.964H8.13009Z" fill="#FFD7EB"/>
</svg>
